<svg width="104" height="104" viewBox="0 0 104 104" fill="none" xmlns="http://www.w3.org/2000/svg">
<path d="M39 91H21.6667V91C16.8802 91 13 87.1198 13 82.3333V21.6667V21.6667C13 16.8802 16.8802 13 21.6667 13H73.6667V13C78.4531 13 82.3333 16.8802 82.3333 21.6667V34.6667" stroke="#172350" stroke-width="4" stroke-linecap="round" stroke-linejoin="round"/>
<path d="M30.3335 34.6667H56.3335" stroke="#172350" stroke-width="4" stroke-linecap="round" stroke-linejoin="round"/>
<path d="M30.3335 52H39.0002" stroke="#172350" stroke-width="4" stroke-linecap="round" stroke-linejoin="round"/>
<path d="M52 91.0001L63.375 89.5961V89.5961C64.1744 89.4953 64.918 89.1326 65.4897 88.5648L93.0453 61.0091V61.0091C96.0979 57.9695 96.1084 53.0308 93.0688 49.9783C93.061 49.9704 93.0532 49.9626 93.0453 49.9548V49.9548C90.0057 46.9022 85.0671 46.8917 82.0145 49.9313C82.0066 49.9391 81.9988 49.9469 81.991 49.9548L54.691 77.2548V77.2548C54.138 77.8081 53.7791 78.5257 53.6683 79.3001L52 91.0001Z" stroke="#172350" stroke-width="4" stroke-linecap="round" stroke-linejoin="round"/>
</svg>
