<svg width="104" height="104" viewBox="0 0 104 104" fill="none" xmlns="http://www.w3.org/2000/svg">
<path d="M73.6668 73.6667V82.3333C73.6671 83.4711 73.4434 84.5979 73.0082 85.6492C72.5731 86.7005 71.9351 87.6558 71.1308 88.4606C70.3265 89.2654 69.3715 89.9039 68.3204 90.3396C67.2693 90.7753 66.1427 90.9997 65.0049 91H26.0002C24.8624 91.0003 23.7356 90.7765 22.6843 90.3414C21.633 89.9063 20.6777 89.2683 19.8729 88.464C19.0681 87.6597 18.4296 86.7047 17.9939 85.6536C17.5582 84.6025 17.3338 83.4759 17.3335 82.3381V34.6667C17.3332 33.5289 17.557 32.4021 17.9921 31.3508C18.4272 30.2995 19.0652 29.3442 19.8695 28.5394C20.6738 27.7346 21.6288 27.0961 22.6799 26.6604C23.731 26.2247 24.8576 26.0003 25.9954 26H34.6668" stroke="#172350" stroke-width="4" stroke-linecap="round" stroke-linejoin="round"/>
<path d="M86.6665 32.5H73.6665C71.9426 32.5 70.2893 31.8152 69.0703 30.5962C67.8513 29.3772 67.1665 27.7239 67.1665 26V13" stroke="#172350" stroke-width="4" stroke-linecap="round" stroke-linejoin="round"/>
<path d="M34.6665 65V21.6667C34.6665 19.3681 35.5796 17.1637 37.2049 15.5384C38.8302 13.9131 41.0346 13 43.3332 13H69.5952C70.7333 13 71.8603 13.2242 72.9118 13.6597C73.9633 14.0953 74.9187 14.7336 75.7235 15.5384L84.1281 23.9431C84.9329 24.7478 85.5713 25.7032 86.0068 26.7547C86.4423 27.8062 86.6665 28.9332 86.6665 30.0713V65C86.6665 67.2985 85.7534 69.5029 84.1281 71.1283C82.5028 72.7536 80.2984 73.6667 77.9998 73.6667H43.3332C41.0346 73.6667 38.8302 72.7536 37.2049 71.1283C35.5796 69.5029 34.6665 67.2985 34.6665 65Z" stroke="#172350" stroke-width="4" stroke-linecap="round" stroke-linejoin="round"/>
<path d="M53.7334 48.9667L58.938 54.1667L67.6001 45.5" stroke="#172350" stroke-width="4" stroke-linecap="round" stroke-linejoin="round"/>
</svg>
